<?xml version="1.0" encoding="UTF-8"?>
<svg xmlns="http://www.w3.org/2000/svg" viewBox="0,0 120,16" style="aspect-ratio: 120 / 16;" height="32">
  <style>
    .plain { fill: #000000; }
    .code { fill: #C01C28; }
    .mark { fill: #6C6C6C; }
    @media (prefers-color-scheme: dark) {
      .plain { fill: #FFFFFF; }
      .code { fill: #ED333B; }
      .mark { fill: #A8A8A8; }
    }
  </style>
  <g class="plain">
    <path d="M 0,0.77293 C 0,4.5151597 0,8.2573893 0,11.999619 0.76744933,11.999619 1.5348987,11.999619 2.302348,11.999619 2.302348,9.5547447 2.302348,7.1098703 2.302348,4.664996 2.5036125,4.6744523 2.4848659,5.0085998 2.5919273,5.1570806 3.4949125,7.4196541 4.3978978,9.6822275 5.300883,11.944801 5.8234793,11.944801 6.3460757,11.944801 6.868672,11.944801 7.83712,9.527336 8.805568,7.109871 9.774016,4.692406 9.9715081,4.7025864 9.8194037,5.0623632 9.867207,5.2222324 9.867207,7.4813616 9.867207,9.7404908 9.867207,11.99962 10.634657,11.99962 11.402106,11.99962 12.169556,11.99962 12.169556,8.25739 12.169556,4.51516 12.169556,0.77293 11.193798,0.77293 10.218041,0.77293 9.242283,0.77293 8.2117083,3.2872403 7.1811337,5.8015507 6.150559,8.315861 5.9147992,8.3551163 5.9406095,8.0044683 5.8306123,7.8562583 4.8628319,5.4951489 3.8950514,3.1340394 2.927271,0.77293 1.951514,0.77293 0.975757,0.77293 0,0.77293 Z" />
    <path d="M 16.478223,12.158591 C 17.425001,12.182055 18.435387,11.770514 18.899842,10.904774 19.05517,10.683054 18.99473,11.07239 19.005323,11.177072 19.005323,11.451255 19.005323,11.725437 19.005323,11.99962 19.743537,11.99962 20.48175,11.99962 21.219964,11.99962 21.216747,10.045039 21.226445,8.0902354 21.215032,6.1357953 21.196747,5.1879208 20.600201,4.3030615 19.74169,3.9092599 18.644253,3.3915607 17.351072,3.352112 16.190368,3.6667887 15.154994,3.9461203 14.257735,4.7662552 14.011783,5.8274456 13.886284,6.0632243 14.232824,5.9557308 14.36833,6.0013189 14.958338,6.0492386 15.548346,6.0971583 16.138354,6.145078 16.301391,5.493287 17.001526,5.1449069 17.63488,5.174802 18.148913,5.147213 18.747804,5.4117839 18.851841,5.9636067 18.973019,6.3206202 18.821489,6.7622317 18.413978,6.8268756 17.285286,7.118702 16.056105,6.9728926 14.987585,7.5043438 14.2716,7.8190361 13.75248,8.5257522 13.699729,9.3106465 13.585532,10.213609 13.914718,11.224936 14.725906,11.709492 15.245256,12.037929 15.870791,12.158369 16.478223,12.158591 Z M 17.147,10.546947 C 16.633073,10.570826 16.001987,10.314833 15.926928,9.7434587 15.824448,9.2663018 16.147939,8.7965771 16.597622,8.6476321 17.338966,8.3651379 18.184765,8.4588504 18.901169,8.09659 18.874747,8.64833 18.998169,9.2419606 18.700788,9.7422795 18.389944,10.282513 17.752751,10.554282 17.147,10.546947 Z" />
    <path d="M 23.034432,11.999619 C 23.812845,11.999619 24.591258,11.999619 25.369671,11.999619 25.372911,10.363924 25.363157,8.7279378 25.374608,7.0924265 25.400951,6.367848 25.941994,5.7053929 26.652082,5.5484414 27.142298,5.4329306 27.660183,5.493618 28.143453,5.613343 28.143453,4.9226383 28.143453,4.2319337 28.143453,3.541229 27.425483,3.3699705 26.590253,3.4417483 26.031799,3.969583 25.71621,4.2559632 25.504752,4.6425197 25.386119,5.048715 25.22503,5.0876809 25.326649,4.8639389 25.298409,4.7700562 25.298409,4.3732378 25.298409,3.9764194 25.298409,3.579601 24.54375,3.579601 23.789091,3.579601 23.034432,3.579601 23.034432,6.3862737 23.034432,9.1929463 23.034432,11.999619 Z" />
    <path d="M 29.68499,11.999619 C 30.463403,11.999619 31.241816,11.999619 32.020229,11.999619 32.020229,11.107916 32.020229,10.216213 32.020229,9.32451 32.230364,9.0851383 32.440499,8.8457667 32.650634,8.606395 33.416256,9.7374693 34.181878,10.868544 34.9475,11.999618 35.859303,11.999618 36.771105,11.999618 37.682908,11.999618 36.588379,10.408075 35.493851,8.8165313 34.399322,7.224988 35.44086,6.0098597 36.482399,4.7947313 37.523937,3.579603 36.630407,3.579603 35.736876,3.579603 34.843346,3.579603 33.944334,4.644896 33.045323,5.710189 32.146311,6.775482 31.919261,6.8318522 32.058009,6.5224236 32.020229,6.3895233 32.020229,4.5173255 32.020229,2.6451278 32.020229,0.77293 31.241816,0.77293 30.463403,0.77293 29.68499,0.77293 29.68499,4.5151597 29.68499,8.2573893 29.68499,11.999619 Z" />
    <path d="M 44.456842,8.414534 C 44.489767,9.1398454 44.042307,9.895521 43.310822,10.073733 42.650231,10.276427 41.827318,10.008767 41.555387,9.3376232 41.306657,8.7597832 41.417689,8.1213354 41.392527,7.5108995 41.392527,6.2004673 41.392527,4.8900352 41.392527,3.579603 40.614114,3.579603 39.835701,3.579603 39.057288,3.579603 39.059782,5.4273936 39.052251,7.2753106 39.061142,9.1230206 39.080826,10.183257 39.568637,11.314663 40.558483,11.803166 41.630113,12.32671 43.070729,12.198866 43.92444,11.322266 44.159851,11.079178 44.341698,10.785985 44.462324,10.470202 44.633136,10.443771 44.515296,10.705992 44.550034,10.815635 44.550034,11.210296 44.550034,11.604958 44.550034,11.999619 45.297383,11.999619 46.044733,11.999619 46.792082,11.999619 46.792082,9.192947 46.792082,6.386275 46.792082,3.579603 46.013669,3.579603 45.235255,3.579603 44.456842,3.579603 44.456842,5.1912467 44.456842,6.8028903 44.456842,8.414534 Z" />
    <path d="M 48.655876,15.157125 C 49.434289,15.157125 50.212702,15.157125 50.991115,15.157125 50.991115,13.655117 50.991115,12.153108 50.991115,10.6511 51.276134,10.910798 51.465318,11.436622 51.868882,11.657007 53.152094,12.556637 55.095524,12.145999 55.991766,10.883896 56.877218,9.6639162 56.993961,8.0558717 56.76849,6.6079842 56.573933,5.3418184 55.803084,4.0677364 54.537662,3.6479259 53.452652,3.2632004 52.062507,3.4728859 51.370385,4.4667091 51.258724,4.6147227 50.938481,5.302739 50.958223,4.7939313 50.958223,4.3891552 50.958223,3.9843791 50.958223,3.579603 50.190772,3.579603 49.423322,3.579603 48.655871,3.579603 48.655873,7.438777 48.655874,11.297951 48.655876,15.157125 Z M 50.941778,7.789612 C 50.937158,6.9161238 51.169054,5.8601435 52.040773,5.4616448 52.790709,5.1248481 53.774415,5.4241273 54.136429,6.1829525 54.568315,7.052528 54.575236,8.0984888 54.303104,9.0178202 54.100306,9.7551741 53.399105,10.360422 52.608442,10.275464 51.757976,10.261641 51.166985,9.4759808 51.032857,8.696398 50.967837,8.3989047 50.941924,8.0937978 50.941778,7.789612 Z" />
  </g>
  <g class="code">
    <path d="M 70.4026,8.4389499 C 69.679169,8.4389499 68.955738,8.4389499 68.232307,8.4389499 68.215461,9.1790715 67.882774,10.029313 67.104681,10.246241 66.368424,10.472196 65.419656,10.392161 64.949838,9.7056036 64.30988,8.7157545 64.404731,7.4933794 64.393756,6.3648517 64.398624,5.1896156 64.31574,3.9012119 65.052182,2.9075017 65.621638,2.181199 66.745752,2.1760394 67.492789,2.6077301 68.06555,2.9745075 68.201885,3.7072982 68.247762,4.3377872 68.968618,4.3377872 69.689473,4.3377872 70.410329,4.3377872 70.321028,3.065952 69.759752,1.7242636 68.594466,1.0885322 67.446391,0.46294953 66.005919,0.3756437 64.788013,0.85088554 63.385347,1.4134708 62.535274,2.8561837 62.300695,4.2991719 62.131408,5.3145919 62.207833,6.3478034 62.196635,7.3723253 62.228742,8.8979222 62.754825,10.549368 64.051472,11.462082 65.203582,12.254533 66.749163,12.287958 68.036506,11.8345 69.372223,11.363995 70.275288,10.038696 70.384981,8.6486916 L 70.394816,8.5444851 70.402599,8.438951 Z" />
    <path d="M 73.859497,4.7548569 C 73.859497,3.2024405 73.859497,1.6500242 73.859497,0.09760782 73.143789,0.09760782 72.42808,0.09760782 71.712371,0.09760782 71.712371,4.0520216 71.712371,8.0064355 71.712371,11.960849 72.42808,11.960849 73.143788,11.960849 73.859496,11.960849 73.859496,9.9501748 73.859496,7.9394999 73.859496,5.9288251 74.431336,5.1421237 75.63129,4.981613 76.448424,5.4535872 77.055057,5.8590664 77.064322,6.6500865 77.04929,7.3073298 77.04929,8.858502 77.04929,10.409674 77.04929,11.960846 77.764998,11.960846 78.480707,11.960846 79.196415,11.960846 79.191523,10.162873 79.20643,8.3645905 79.18854,6.5668188 79.154617,5.4805364 78.731188,4.2562203 77.684544,3.7609387 76.582734,3.2399907 75.130668,3.3466834 74.265217,4.2633264 74.114232,4.413301 73.978782,4.5786824 73.859497,4.7548569 Z" />
    <path d="M 81.065568,3.60406 C 81.065568,4.1884689 81.065568,4.7728778 81.065568,5.3572867 81.858509,5.3572867 82.651449,5.3572867 83.444389,5.3572867 83.444389,6.9766393 83.444389,8.5959918 83.444389,10.215344 82.651449,10.215344 81.858509,10.215344 81.065568,10.215344 81.065568,10.797179 81.065568,11.379013 81.065568,11.960848 83.336265,11.960848 85.606963,11.960848 87.87766,11.960848 87.87766,11.379014 87.87766,10.79718 87.87766,10.215346 87.123333,10.215346 86.369006,10.215346 85.61468,10.215346 85.61468,8.0115847 85.61468,5.8078229 85.61468,3.6040611 84.098309,3.6040607 82.581939,3.6040604 81.065568,3.60406 Z M 83.289917,1.4646614 C 83.247808,2.1277679 83.890104,2.6505769 84.525654,2.6077371 85.122271,2.6522836 85.735834,2.2079494 85.763822,1.5873945 85.863214,0.9418989 85.309253,0.33101711 84.664797,0.32665893 84.055176,0.24288958 83.364655,0.63424734 83.301863,1.2847341 83.293699,1.3443374 83.289914,1.4045292 83.289917,1.4646614 Z" />
    <path d="M 94.666661,9.6669825 C 94.667117,10.180755 94.127084,10.455663 93.684094,10.525129 92.941013,10.637216 92.069647,10.614536 91.4957,10.065222 91.153255,9.9165429 91.366135,9.2564677 90.990904,9.3116994 90.37025,9.3116994 89.749598,9.3116994 89.128945,9.3116994 89.122981,10.391509 89.948157,11.295094 90.896105,11.706334 91.975905,12.198347 93.219903,12.213009 94.36678,11.981121 95.342289,11.767406 96.362906,11.18511 96.666467,10.173014 96.904694,9.4011679 96.657086,8.5058897 96.022034,7.9960858 95.197591,7.3267561 94.11287,7.1361834 93.093967,6.9595412 92.56689,6.8637861 91.969347,6.7776406 91.592717,6.3594021 91.29186,5.9340288 91.567677,5.3376666 92.029111,5.1719198 92.628368,4.9413051 93.331961,4.9337806 93.928119,5.1806062 94.317555,5.3303885 94.586364,5.7278686 94.573966,6.145074 95.289676,6.145074 96.005388,6.145074 96.721098,6.145074 96.747076,5.1368003 96.033048,4.2297413 95.119112,3.8633945 94.035291,3.3995465 92.794255,3.3346041 91.653303,3.6092443 90.66223,3.8559669 89.67196,4.5426993 89.44656,5.5930285 89.282746,6.2811363 89.519276,7.0400274 90.066126,7.4945988 90.983195,8.3132637 92.241144,8.497386 93.398742,8.749813 93.835058,8.8780325 94.383559,8.9615625 94.614529,9.4034143 94.651069,9.4861296 94.666827,9.576973 94.666661,9.6669825 Z" />
    <path d="M 102.3715,12.115319 C 103.56562,12.143134 104.77862,11.685063 105.59948,10.807216 105.89921,10.635783 105.66076,10.47598 105.51555,10.319395 105.24246,10.024688 104.96935,9.7299811 104.69626,9.4352741 104.06678,10.233954 102.94262,10.517744 101.97001,10.338681 101.15246,10.176033 100.47427,9.5015412 100.31344,8.6822114 100.14363,8.3984619 100.45424,8.4904314 100.62144,8.4775699 102.3942,8.4775699 104.16697,8.4775699 105.93974,8.4775699 105.94194,7.5610119 105.98058,6.6173131 105.63504,5.7488118 105.29268,4.7567892 104.47006,3.9596109 103.46793,3.6484457 102.06478,3.2023398 100.39897,3.4914666 99.338894,4.549535 98.424311,5.4369546 98.039488,6.7498597 98.092662,8.0008279 98.053359,9.2176363 98.589536,10.447967 99.562563,11.193336 100.35327,11.821129 101.36751,12.126912 102.3715,12.115319 Z M 102.11663,5.1873715 C 102.83986,5.1584129 103.57692,5.6154261 103.76172,6.3367184 103.76202,6.5058418 103.98494,7.0061936 103.71432,6.9946611 102.57932,6.9946611 101.44433,6.9946611 100.30933,6.9946611 100.43969,6.207833 100.92465,5.3710533 101.76908,5.2201953 101.88344,5.1975716 102.0001,5.1873555 102.11663,5.1873715 Z" />
    <path d="M 107.80562,0.0976078 C 107.80562,0.6820174 107.80562,1.2664271 107.80562,1.8508366 108.63976,1.8508366 109.47389,1.8508366 110.30802,1.8508366 110.30802,4.6390069 110.30802,7.4271772 110.30802,10.215347 109.47389,10.215347 108.63976,10.215347 107.80562,10.215347 107.80562,10.797182 107.80562,11.379016 107.80562,11.960851 110.16128,11.960851 112.51693,11.960851 114.87259,11.960851 114.87259,11.379016 114.87259,10.797182 114.87259,10.215347 114.07449,10.215347 113.27641,10.215347 112.47831,10.215347 112.47831,6.8427676 112.47831,3.4701877 112.47831,0.0976078 110.92075,0.0976078 109.36318,0.0976078 107.80562,0.0976078 Z" />
  </g>
  <g class="mark">
    <path d="M 59.354796,2.49421 C 59.904801,2.49421 60.454807,2.49421 61.004812,2.49421 60.615605,1.6628067 60.226399,0.83140333 59.837192,0 59.119078,0 58.400965,0 57.682851,0 58.240166,0.83140333 58.797481,1.6628067 59.354796,2.49421 Z" />
    <path d="M 118.1364,2.49421 C 118.6864,2.49421 119.23641,2.49421 119.78641,2.49421 119.3972,1.662808 119.008,0.83140205 118.61879,0 117.90068,0 117.18257,0 116.46446,0 117.02177,0.83140487 117.57909,1.6628051 118.1364,2.49421 Z" />
  </g>
</svg>
